<svg width="18" height="16" viewBox="0 0 18 16" fill="none" xmlns="http://www.w3.org/2000/svg">
<path fill-rule="evenodd" clip-rule="evenodd" d="M2.71474 7.94374L8.97912 14.1775L15.2784 7.95185C15.2994 7.92651 15.3213 7.90219 15.3453 7.87989C16.0925 7.17441 16.5036 6.21958 16.5036 5.19278C16.5036 3.16756 14.8823 1.52043 12.889 1.52043C11.5222 1.52043 10.2881 2.29281 9.66752 3.53652C9.53981 3.79195 9.28242 3.95211 9.00007 3.95211C8.71773 3.95211 8.46033 3.79195 8.33263 3.53551C7.71208 2.29281 6.47696 1.52043 5.11015 1.52043C3.1178 1.52043 1.49658 3.16756 1.49658 5.19278C1.49658 6.21958 1.90762 7.17441 2.65388 7.87989C2.67583 7.90016 2.69578 7.92144 2.71474 7.94374M8.97705 16C8.7875 16 8.59894 15.927 8.45328 15.7821L1.61623 8.97865C1.60426 8.96649 1.59228 8.95331 1.58031 8.94013C0.574659 7.96199 0 6.6007 0 5.19278C0 2.3293 2.29265 0 5.11008 0C6.63552 0 8.04223 0.678112 9 1.82654C9.95776 0.678112 11.3645 0 12.8889 0C15.7073 0 18 2.3293 18 5.19278C18 6.59462 17.4293 7.95185 16.4317 8.92898C16.4157 8.94723 16.3997 8.96446 16.3828 8.98068L9.49884 15.7841C9.35318 15.928 9.16462 16 8.97705 16" fill="black" fill-opacity="0.3"/>
</svg>
